# xmcd
#
# Track frame offsets: 
#        183
#        12820
#        27133
#        39595
#        54133
#        69458
#        81283
#        92933
#        104733
#        117958
#        128533
#        144283
#        158133
#        169245
#
# Disc length: 2442 seconds
#
# Revision: 1
# Processed by: cddbd v1.5.2PL0 Copyright (c) Steve Scherf et al.
# Submitted via: ExactAudioCopy v0.99pb3
#
DISCID=af09880e
DTITLE=Vari - Il dizionario del Rock - Bluesmen
DYEAR=1992
DGENRE=Blues
TTITLE0=Muddy Waters - (I'm Your) Hoochie Coochie Man
TTITLE1=Muddy Waters - Rollin' Stone
TTITLE2=Otis Spann - I'm In Love With You Baby
TTITLE3=Lightnin' Hopkins - Baby Please Don't Quit Me
TTITLE4=Lightnin' Hopkins - Big Car Blues
TTITLE5=John Lee Hooker - Boogie Chillun
TTITLE6=John Lee Hooker - Boom Boom
TTITLE7=Sonny Boy Williamson - Don't Start Me To Talkin'
TTITLE8=Elmore James - Dust My Broom
TTITLE9=Buddy Guy - First Time I Met The Blues
TTITLE10=Albert King - Born Under A Bad Sign
TTITLE11=Howlin' Wolf - Smokestack Lightning
TTITLE12=Howlin' Wolf - Highway Man
TTITLE13=Big Bill Broonzy, Washboard Sam - By Myself
EXTD=il Dizionario del rock miti di ieri e di oggi
EXTT0=
EXTT1=
EXTT2=
EXTT3=
EXTT4=
EXTT5=
EXTT6=
EXTT7=
EXTT8=
EXTT9=
EXTT10=
EXTT11=
EXTT12=
EXTT13=
PLAYORDER=
